<svg version="1.2" xmlns="http://www.w3.org/2000/svg" viewBox="8.5 85.2 183.6 194" width="24" height="24">
	<style>
		.s0 { fill: #0cf73d } 
		.s1 { fill: #fffd00 } 
		.s2 { fill: #0c0bac } 
	</style>
	<g id="Folder 1">
		<g id="layer2">
			<g id="g111">
				<path id="path110" class="s0" d="m99.12 267.81c-49.51 0-89.54-38.39-89.54-85.89 0-47.5 40.03-85.89 89.54-85.89 49.51 0 89.54 38.39 89.54 85.89 0 47.5-40.03 85.89-89.54 85.89z"/>
				<path id="path113" class="s1" d="m25.68 209.39c15.25-7.65 30.69-15.14 47.05-20.14 9.78-5.9 17.71-17.11 30.02-17.28q6.37-0.77 12.74-1.54 9.56 11.72 19.12 23.45c9.08-0.46 19.21-3.09 26.38 4.56 7.34 3.99 17.3 12.7 23.01 13.79q-0.71-35.51-1.42-71.02-27.41-22.9-54.82-45.81-30.48 4.33-60.96 8.66c-13.25 12.04-27.9 22.95-40.25 35.71q-4.95 25.79-9.89 51.58 4.51 9.02 9.02 18.04z"/>
				<g id="g110">
					<path id="path79" class="s2" d="m92.91 85.24c-43.2 5.76-81.23 42.58-84.44 86.44-1.93 18.74 1.45 37.91 9.18 55.07 8.5 7.9 16.45-3.96 21.41-10.07 7.36-6.76 12.54-20.8 24.86-18.63 7.16 7.71 18.68 6.45 22.39-4.43 4.4-9.12 12.93-22.27 24.9-15.33 8.46 5.78 10.11 17.46 18.64 23.44 9.62 8.5 19.31-11.58 28.12 0.43 8.83 8.88 14.36 22.1 26.29 27.3 12.69 1.24 11.49-15.91 14.99-24.24 9.12-35.79-4.39-76.16-33.82-98.86-19.83-16.04-46.05-23.6-71.44-21.11h-0.55zm12.28 19.53c1.97 4.23-1.48 19.58-0.73 7.6 0.43-2.51 0.91-5.04 0.73-7.6zm20.58 2.99c2.63 4.37-5.01 19.85-6.15 13.15 1.93-4.44 4.74-8.49 6.15-13.15zm-41.71 0.05c1.18 4.14 8.85 16.37 3.98 14.5-2.32-4.43-5.41-9.29-3.98-14.5zm53.55 6.73c-1.47 2.62-9.14 17.52-8.53 9.17 1.88-3.78 4.89-7 8.53-9.17zm-65.21 0.2c6.93-1.9 10.97 18.73 4.36 7.81-1.3-2.69-2.52-5.44-4.36-7.81zm-23.23 8.64c5.15 5.96 19.46 16.07 18.84 19.27-7.45-5.07-14.97-10.91-18.84-19.27zm109.65 1.99c-3.66 5.92-9.15 15.72-16.79 14.81 4.84-5.73 11.12-9.98 16.79-14.81zm-53.25 5.98c3.77 7.01-6.14 6.63 0 0zm-25.42 6.93c6.04 4.92-4.6 6.27 0 0zm49.69 0.11c3.32 7.05-8.68 1.34 0 0zm26.94 5.52c3.12 8.22-17.14 5.63-5.22 2.16 1.78-0.62 3.57-1.24 5.22-2.16zm-103.19 0.07c5.07-1.26 12.24 10.19 3.33 4.37-1.73-0.54-5.18-2.07-3.33-4.37zm54.33 2.65c12.77 3.03 7.41 25.73-5.43 22.55-13.73-3.36-9.37-26.9 5.43-22.55zm-32.1 7.92c10.36-1.27-2.31 7.83 0 0zm57.03 0.06c3.53 5.92-7.68-0.81 0 0zm-97.09 2.55c4.28 2.23 18.84 2.17 16.33 6.52-5.76-0.87-12.87-1-16.33-6.52zm137.35 0.1c-1.42 6.05-17.02 9.18-16.2 4.09 5.35-1.56 10.86-2.49 16.2-4.09zm-104.93 10.64c6.94-1.9-2.36 6.01 0 0zm70.84 0c6.94-1.9-2.36 6.01 0 0zm12.03 7.64c4.75 4.08 20.37-1.38 19.36 3.93-6.53 0.66-14.63 1.78-19.36-3.93zm-92.22 0.7c-5.75 3.72-17.24 6.96-21.81 1.12 7.24-0.85 14.56-0.42 21.81-1.12zm80.19 4.79c8.58 2.36-4.1 7.03 0 0zm-70.84 1.49c6.94-1.9-2.36 6.01 0 0zm-16.04 5.38c2.24 8.84-21.02 6.48-8.07 2.7 2.8-0.45 5.77-0.9 8.07-2.7zm103.72 1.26c4.56-3.99 18.91 7.5 7.21 4.08-2.64-0.87-5.15-2.2-7.21-4.08z"/>
					<path id="path78" class="s2" d="m103.25 189.17c-18.79 22.82-37.58 45.64-56.46 68.39 5.62 9.98 18.62 12.28 28.21 17.13 11.46 2.41 23.19 5.31 34.97 4.18 13.85-0.72 27.89-3.59 39.81-10.91 10.22-1.81 17.61-11.91 6.46-18.33-16.81-19.98-33.56-40.01-49.97-60.31l-1.51-0.08c0 0-1.51-0.07-1.51-0.07zm-0.04 19.93c10.25 4.84 12.07 17.87 19.35 25.78 3.3 7.53 13.42 17.13 12.16 23.64-7.37-5.14-11.37-14.64-17.99-21.04-5.37-4.53-10.9-22-16.52-9.78-8.15 10.24-16.13 20.61-24.6 30.58-3.85-7.85 7.89-14.04 9.92-21.5 5.87-9.24 11.78-18.45 17.68-27.68zm-43.23 0.76c-9.71 11.02-20.37 21.23-29.21 32.99 4.77 12.99 15.73-3.51 19.67-9.14 5.1-6.29 22.32-15.91 9.54-23.85zm87.37 0.57c-9.03 8.31 6.25 15.62 10.15 22.38 6.11 4.29 13.39 22.61 20.66 12.11 0.07-9.87-11.68-13.42-15.96-21.37-4.25-5.05-8.59-10.49-14.85-13.12z"/>
				</g>
				<path id="path112" class="s1" d="m104.79 169.81c-7.06 0-12.76-5.71-12.76-12.76 0-7.06 5.7-12.77 12.76-12.77 7.06 0 12.76 5.71 12.76 12.77 0 7.05-5.7 12.76-12.76 12.76z"/>
			</g>
		</g>
	</g>
</svg>